<svg id="Layer_1" data-name="Layer 1" xmlns="http://www.w3.org/2000/svg" viewBox="0 0 185.83 68.83"><defs><style>.cls-1{fill:none;stroke:#d5d5d5;stroke-miterlimit:10;stroke-width:1.5px;}.cls-2{fill:#f4f4f4;}</style></defs><title>ap-store-btn2</title><rect class="cls-1" x="0.75" y="0.75" width="184.33" height="67.33" rx="5" ry="5"/><path class="cls-2" d="M47.7,33.18A7,7,0,0,1,51,27.29a7.18,7.18,0,0,0-5.66-3.06c-2.38-.25-4.69,1.42-5.9,1.42s-3.11-1.4-5.12-1.36A7.54,7.54,0,0,0,28,28.16c-2.75,4.76-.7,11.76,1.91,15.58,1.31,1.88,2.85,4,4.86,3.91s2.7-1.26,5.08-1.26,3,1.26,5.09,1.21,3.44-1.89,4.71-3.79a15.44,15.44,0,0,0,2.15-4.39,6.78,6.78,0,0,1-4.14-6.24"/><path class="cls-2" d="M43.82,21.7a6.91,6.91,0,0,0,1.58-5,7,7,0,0,0-4.55,2.35,6.58,6.58,0,0,0-1.62,4.87,5.82,5.82,0,0,0,4.59-2.17"/><path class="cls-2" d="M76.2,47.37H73.45l-1.53-4.73H66.71l-1.43,4.73H62.59l5.19-16.12H71Zm-4.71-6.72-1.37-4.2q-0.21-.65-0.81-3h0q-0.24,1-.76,3l-1.34,4.21h4.28Z"/><path class="cls-2" d="M89.52,41.42a6.57,6.57,0,0,1-1.6,4.69,4.72,4.72,0,0,1-3.58,1.53A3.59,3.59,0,0,1,81,46v6.1h-2.6V39.58c0-1.25,0-2.52-.1-3.82h2.27l0.14,1.84h0a4.6,4.6,0,0,1,7.35-.46,6.43,6.43,0,0,1,1.44,4.28m-2.6.1a4.79,4.79,0,0,0-.77-2.8,2.65,2.65,0,0,0-2.23-1.15,2.68,2.68,0,0,0-1.73.63,2.94,2.94,0,0,0-1,1.66,3.38,3.38,0,0,0-.12.79v1.94a3.12,3.12,0,0,0,.78,2.14,2.57,2.57,0,0,0,2,.87,2.64,2.64,0,0,0,2.27-1.12,4.93,4.93,0,0,0,.81-3"/><path class="cls-2" d="M102.92,41.42a6.58,6.58,0,0,1-1.61,4.68,4.73,4.73,0,0,1-3.58,1.53A3.59,3.59,0,0,1,94.41,46v6.1H91.79V39.58c0-1.25,0-2.52-.09-3.82h2.22l0.14,1.84h0a4.6,4.6,0,0,1,7.35-.46,6.43,6.43,0,0,1,1.51,4.28m-2.63.09a4.8,4.8,0,0,0-.77-2.8,2.64,2.64,0,0,0-2.25-1.15,2.69,2.69,0,0,0-1.73.63,2.94,2.94,0,0,0-1,1.66,3.42,3.42,0,0,0-.12.79v1.94a3.12,3.12,0,0,0,.78,2.14,2.59,2.59,0,0,0,2,.87,2.64,2.64,0,0,0,2.27-1.12,4.94,4.94,0,0,0,.81-3"/><path class="cls-2" d="M117.82,42.85a4.31,4.31,0,0,1-1.43,3.35A6.36,6.36,0,0,1,112,47.61a7.66,7.66,0,0,1-4.17-1l0.6-2.15a7.18,7.18,0,0,0,3.73,1,3.51,3.51,0,0,0,2.27-.66,2.14,2.14,0,0,0,.81-1.76,2.25,2.25,0,0,0-.67-1.65,6.23,6.23,0,0,0-2.22-1.25q-4.23-1.58-4.23-4.62a4.06,4.06,0,0,1,1.49-3.25,5.9,5.9,0,0,1,4-1.27,7.82,7.82,0,0,1,3.66.77l-0.69,2.15a6.4,6.4,0,0,0-3.1-.74,3.15,3.15,0,0,0-2.14.67,1.91,1.91,0,0,0-.65,1.46,2,2,0,0,0,.74,1.58,8.36,8.36,0,0,0,2.34,1.25,7.92,7.92,0,0,1,3.06,2,4.08,4.08,0,0,1,1,2.8"/><path class="cls-2" d="M126.38,37.69h-2.85v5.64q0,2.15,1.51,2.15a4.6,4.6,0,0,0,1.15-.12l0.07,2a5.84,5.84,0,0,1-2,.29,3.1,3.1,0,0,1-2.39-.93,4.57,4.57,0,0,1-.86-3.13v-5.9h-1.69V35.75H121V33.62l2.54-.77v2.89h2.85v1.94h0Z"/><path class="cls-2" d="M139.19,41.47a6.36,6.36,0,0,1-1.53,4.4,5.46,5.46,0,0,1-4.25,1.77,5.2,5.2,0,0,1-4.08-1.7,6.18,6.18,0,0,1-1.52-4.28,6.33,6.33,0,0,1,1.57-4.42,5.43,5.43,0,0,1,4.22-1.72,5.31,5.31,0,0,1,4.11,1.7,6.11,6.11,0,0,1,1.48,4.25m-2.68.06a5.19,5.19,0,0,0-.69-2.74,2.55,2.55,0,0,0-2.32-1.39,2.59,2.59,0,0,0-2.37,1.39,5.27,5.27,0,0,0-.69,2.79,5.17,5.17,0,0,0,.69,2.74,2.65,2.65,0,0,0,4.67,0,5.25,5.25,0,0,0,.71-2.77"/><path class="cls-2" d="M147.59,38a4.46,4.46,0,0,0-.81-0.07,2.44,2.44,0,0,0-2.1,1,3.87,3.87,0,0,0-.64,2.3v6.1h-2.58v-8q0-2-.08-3.66h2.25l0.09,2.22h0.07a4,4,0,0,1,1.29-1.84,3.11,3.11,0,0,1,1.87-.62,4.28,4.28,0,0,1,.65,0V38h0Z"/><path class="cls-2" d="M159.14,41a6.06,6.06,0,0,1-.09,1.17H151.3a3.37,3.37,0,0,0,1.12,2.63,3.83,3.83,0,0,0,2.53.81,8.52,8.52,0,0,0,3.13-.55l0.41,1.85a9.69,9.69,0,0,1-3.9.72,5.65,5.65,0,0,1-4.24-1.59,5.88,5.88,0,0,1-1.54-4.27,6.66,6.66,0,0,1,1.43-4.38,5,5,0,0,1,4.06-1.86,4.33,4.33,0,0,1,3.8,1.86,6.28,6.28,0,0,1,1,3.66m-2.46-.67a3.49,3.49,0,0,0-.5-2,2.26,2.26,0,0,0-2.06-1.08,2.45,2.45,0,0,0-2.05,1,3.86,3.86,0,0,0-.76,2h5.38v0Z"/><path class="cls-2" d="M70.25,25.49H68.92l-0.74-2.32H65.59l-0.67,2.32H63.57l2.55-7.92h1.57Zm-2.33-3.3-0.65-2.07c-0.07-.21-0.2-0.71-0.4-1.49h0c-0.08.34-.2,0.83-0.37,1.49l-0.66,2.07h2.08Z"/><path class="cls-2" d="M76.62,19.78l-2.16,5.71H73.22l-2.09-5.71h1.36l1,3c0.16,0.5.3,1,.41,1.44h0a14.59,14.59,0,0,1,.41-1.44l1-3h1.31Z"/><path class="cls-2" d="M82.37,25.49H81.23l-0.09-.66h0a2,2,0,0,1-1.67.79,1.73,1.73,0,0,1-1.31-.52,1.62,1.62,0,0,1-.47-1.18,1.77,1.77,0,0,1,.87-1.6A4.53,4.53,0,0,1,81,21.78V21.7a1,1,0,0,0-1.19-1.13,2.68,2.68,0,0,0-1.49.42l-0.26-.83a3.67,3.67,0,0,1,2-.49q2.25,0,2.24,2.36v2.1a8.76,8.76,0,0,0,.08,1.36m-1.32-2V22.65q-2.1,0-2.1,1.15a0.86,0.86,0,0,0,.25.67,0.89,0.89,0,0,0,.62.22,1.28,1.28,0,0,0,.78-0.26,1.08,1.08,0,0,0,.44-0.67V23.49Z"/><path class="cls-2" d="M85.92,18.08a0.73,0.73,0,0,1-.23.55,0.8,0.8,0,0,1-.58.21,0.73,0.73,0,0,1-.53-0.22,0.74,0.74,0,0,1-.22-0.55,0.71,0.71,0,0,1,.22-0.54,0.83,0.83,0,0,1,1.1,0,0.71,0.71,0,0,1,.22.54m-0.14,7.41H84.5v-5.7h1.27v5.71h0Z"/><rect class="cls-2" x="88.02" y="17.16" width="1.27" height="8.33"/><path class="cls-2" d="M95.83,25.49H94.69l-0.09-.66h0a2,2,0,0,1-1.68.79,1.73,1.73,0,0,1-1.3-.52,1.62,1.62,0,0,1-.47-1.18,1.78,1.78,0,0,1,.88-1.6,4.53,4.53,0,0,1,2.46-.54V21.7a1,1,0,0,0-1.19-1.13,2.66,2.66,0,0,0-1.49.42l-0.26-.83a3.67,3.67,0,0,1,2-.49q2.25,0,2.24,2.36v2.1a8.79,8.79,0,0,0,.08,1.36m-1.32-2V22.65q-2.1,0-2.1,1.15a0.86,0.86,0,0,0,.25.67,0.89,0.89,0,0,0,.62.22,1.28,1.28,0,0,0,.78-0.26,1.08,1.08,0,0,0,.44-0.67V23.49Z"/><path class="cls-2" d="M103.41,22.55a3.25,3.25,0,0,1-.8,2.3,2.26,2.26,0,0,1-1.73.76,1.92,1.92,0,0,1-1.8-1h0L99,25.49H97.92V17.16h1.27v3.46a2,2,0,0,1,1.83-1,2.09,2.09,0,0,1,1.69.79,3.17,3.17,0,0,1,.66,2.1m-1.29,0a2.29,2.29,0,0,0-.38-1.36,1.35,1.35,0,0,0-1.87-.37l-0.13.1a1.47,1.47,0,0,0-.5.81,1.64,1.64,0,0,0,0,.4v1a1.42,1.42,0,0,0,.39,1,1.29,1.29,0,0,0,1,.42,1.31,1.31,0,0,0,1.12-.54,2.41,2.41,0,0,0,.4-1.47"/><rect class="cls-2" x="105.28" y="17.16" width="1.27" height="8.33"/><path class="cls-2" d="M113.51,22.37a3.17,3.17,0,0,1,0,.57H109.7a1.66,1.66,0,0,0,.55,1.29,1.89,1.89,0,0,0,1.25.4,4.16,4.16,0,0,0,1.54-.27l0.2,0.88a4.78,4.78,0,0,1-1.91.35,2.78,2.78,0,0,1-2.09-.78,2.89,2.89,0,0,1-.76-2.1,3.26,3.26,0,0,1,.71-2.15,2.43,2.43,0,0,1,2-.92,2.13,2.13,0,0,1,1.87.92,3.06,3.06,0,0,1,.51,1.8M112.36,22a1.74,1.74,0,0,0-.25-1,1.11,1.11,0,0,0-1-.53,1.21,1.21,0,0,0-1,.52,1.92,1.92,0,0,0-.37,1h2.62Z"/><path class="cls-2" d="M124,22.59a3.13,3.13,0,0,1-.75,2.16,2.68,2.68,0,0,1-2.09.87,2.55,2.55,0,0,1-2-.83,3,3,0,0,1-.75-2.1,3.09,3.09,0,0,1,.77-2.17,2.67,2.67,0,0,1,2.07-.84,2.62,2.62,0,0,1,2,.83A3,3,0,0,1,124,22.6m-1.32,0a2.55,2.55,0,0,0-.34-1.35,1.25,1.25,0,0,0-1.14-.68,1.27,1.27,0,0,0-1.16.68,2.59,2.59,0,0,0-.34,1.37A2.56,2.56,0,0,0,120,24a1.29,1.29,0,0,0,1.15.68A1.26,1.26,0,0,0,122.3,24a2.54,2.54,0,0,0,.35-1.36"/><path class="cls-2" d="M130.84,25.49h-1.27V22.21q0-1.52-1.15-1.52a1.14,1.14,0,0,0-.92.42,1.46,1.46,0,0,0-.35,1V25.5h-1.23V19.78h1L127,20.66h0a1.82,1.82,0,0,1,.66-0.68,2.15,2.15,0,0,1,1.15-.32,1.82,1.82,0,0,1,1.33.52,2.5,2.5,0,0,1,.66,1.89v3.42h0.06Z"/><path class="cls-2" d="M139.14,20.73h-1.4V23.5c0,0.7.24,1.06,0.74,1.06A2.16,2.16,0,0,0,139,24.5v1a2.85,2.85,0,0,1-1,.14,1.52,1.52,0,0,1-1.17-.46,2.25,2.25,0,0,1-.43-1.54V20.73h-0.83v-1h0.83v-1l1.24-.38v1.42h1.4v1Z"/><path class="cls-2" d="M145.85,25.49h-1.27V22.24c0-1-.39-1.54-1.15-1.54a1.21,1.21,0,0,0-1.21.89,1.56,1.56,0,0,0-.06.46v3.44h-1.24V17.16h1.27v3.43h0a1.92,1.92,0,0,1,1.71-.93,1.77,1.77,0,0,1,1.31.52,2.61,2.61,0,0,1,.64,1.91v3.39h0Z"/><path class="cls-2" d="M152.38,22.37a2.88,2.88,0,0,1,0,.57h-3.8a1.66,1.66,0,0,0,.55,1.29,1.88,1.88,0,0,0,1.24.4,4.14,4.14,0,0,0,1.54-.27l0.2,0.88a4.79,4.79,0,0,1-1.92.35,2.78,2.78,0,0,1-2.09-.78,2.89,2.89,0,0,1-.76-2.1,3.27,3.27,0,0,1,.71-2.15,2.43,2.43,0,0,1,2-.92,2.13,2.13,0,0,1,1.87.92,3,3,0,0,1,.51,1.8M151.22,22a1.74,1.74,0,0,0-.25-1,1.11,1.11,0,0,0-1-.53,1.21,1.21,0,0,0-1,.52,1.89,1.89,0,0,0-.37,1h2.62Z"/></svg>