<svg id="Layer_1" data-name="Layer 1" xmlns="http://www.w3.org/2000/svg" xmlns:xlink="http://www.w3.org/1999/xlink" viewBox="0 0 185.83 68.83"><defs><style>.cls-1{fill:none;stroke:#d5d5d5;stroke-miterlimit:10;stroke-width:1.5px;}.cls-2{fill:#f4f4f4;}.cls-3{fill:url(#linear-gradient);}.cls-4{fill:url(#linear-gradient-2);}.cls-5{fill:url(#linear-gradient-3);}.cls-6{fill:url(#linear-gradient-4);}.cls-7{opacity:0.2;}.cls-7,.cls-8,.cls-9{isolation:isolate;}.cls-8{opacity:0.12;}.cls-9{fill:#fff;opacity:0.25;}</style><linearGradient id="linear-gradient" x1="40.51" y1="22.6" x2="20.67" y2="42.44" gradientTransform="translate(-2.08 -2.08)" gradientUnits="userSpaceOnUse"><stop offset="0" stop-color="#00a0ff"/><stop offset="0.01" stop-color="#00a1ff"/><stop offset="0.26" stop-color="#00beff"/><stop offset="0.51" stop-color="#00d2ff"/><stop offset="0.76" stop-color="#00dfff"/><stop offset="1" stop-color="#00e3ff"/></linearGradient><linearGradient id="linear-gradient-2" x1="54.74" y1="35.94" x2="26.13" y2="35.94" gradientTransform="translate(-2.08 -2.08)" gradientUnits="userSpaceOnUse"><stop offset="0" stop-color="#ffe000"/><stop offset="0.41" stop-color="#ffbd00"/><stop offset="0.78" stop-color="orange"/><stop offset="1" stop-color="#ff9c00"/></linearGradient><linearGradient id="linear-gradient-3" x1="44.08" y1="38.65" x2="17.18" y2="65.56" gradientTransform="translate(-2.08 -2.08)" gradientUnits="userSpaceOnUse"><stop offset="0" stop-color="#ff3a44"/><stop offset="1" stop-color="#c31162"/></linearGradient><linearGradient id="linear-gradient-4" x1="23.36" y1="12.52" x2="35.37" y2="24.54" gradientTransform="translate(-2.08 -2.08)" gradientUnits="userSpaceOnUse"><stop offset="0" stop-color="#32a071"/><stop offset="0.07" stop-color="#2da771"/><stop offset="0.48" stop-color="#15cf74"/><stop offset="0.8" stop-color="#06e775"/><stop offset="1" stop-color="#00f076"/></linearGradient></defs><title>google-play-btn2</title><rect class="cls-1" x="0.75" y="0.75" width="184.33" height="67.33" rx="5" ry="5"/><path class="cls-2" d="M68.71,22.33a3.2,3.2,0,0,1-.88,2.37,3.44,3.44,0,0,1-2.61,1,3.73,3.73,0,0,1-2.61-6.34,3.57,3.57,0,0,1,2.61-1.06,3.66,3.66,0,0,1,1.46.3,2.93,2.93,0,0,1,1.11.79L67.17,20a2.4,2.4,0,0,0-1.94-.84,2.87,2.87,0,0,0-1.94,4.88,2.82,2.82,0,0,0,3.92,0,2.23,2.23,0,0,0,.59-1.44H65.23V21.79h3.44A3,3,0,0,1,68.71,22.33Z"/><path class="cls-2" d="M74.16,19.37H70.92v2.25h2.91v0.85H70.92v2.25h3.23v0.87H70V18.5h4.14v0.87Z"/><path class="cls-2" d="M78,25.59H77.09V19.37h-2V18.5H80v0.87H78v6.22h0Z"/><path class="cls-2" d="M83.51,25.59V18.5h0.91v7.09H83.51Z"/><path class="cls-2" d="M88.47,25.59H87.56V19.37h-2V18.5h4.87v0.87h-2v6.22h0Z"/><path class="cls-2" d="M99.67,24.67a3.68,3.68,0,0,1-5.2,0,3.83,3.83,0,0,1,0-5.26,3.67,3.67,0,0,1,5.19,0h0A3.82,3.82,0,0,1,99.67,24.67Zm-4.53-.59a2.73,2.73,0,0,0,3.85,0A3,3,0,0,0,99,20a2.73,2.73,0,0,0-3.85,0,3,3,0,0,0,0,4.07h0Z"/><path class="cls-2" d="M102,25.59V18.5h1.11L106.56,24h0V18.5h0.91v7.09h-1l-3.55-5.79h0v5.79H102Z"/><path class="cls-2" d="M93.2,35.92a5,5,0,1,0,5,5A5,5,0,0,0,93.2,35.92Zm0,8.07A3,3,0,1,1,96,40.74q0,0.13,0,.25a2.91,2.91,0,0,1-2.8,3h0v0Zm-11-8.07a5,5,0,1,0,5,5A5,5,0,0,0,82.19,35.92Zm0,8.07A3,3,0,1,1,85,40.74q0,0.13,0,.25a2.91,2.91,0,0,1-2.8,3h0v0Zm-13.1-6.53v2.13h5.1A4.45,4.45,0,0,1,73,42.28a5.23,5.23,0,0,1-3.94,1.56,5.68,5.68,0,0,1,0-11.35A5.44,5.44,0,0,1,72.92,34l1.5-1.5a7.44,7.44,0,0,0-5.35-2.15,7.81,7.81,0,1,0,0,15.62h0a7.14,7.14,0,0,0,5.45-2.19,7.76,7.76,0,0,0,1.74-6.33H69.1v0Zm53.56,1.66a4.67,4.67,0,0,0-4.3-3.2,4.78,4.78,0,0,0-4.74,4.81q0,0.09,0,.19a4.92,4.92,0,0,0,4.84,5h0.16a5,5,0,0,0,4.19-2.23l-1.71-1.14a2.87,2.87,0,0,1-2.48,1.39,2.56,2.56,0,0,1-2.44-1.52l6.75-2.72Zm-6.86,1.68a2.76,2.76,0,0,1,2.63-2.88h0a2,2,0,0,1,1.87,1Zm-5.47,4.88h2.21V30.92h-2.21V45.68Zm-3.62-8.63h-0.08A3.48,3.48,0,0,0,104,35.92,5,5,0,0,0,104,46a3.43,3.43,0,0,0,2.65-1.14h0.08v0.72c0,1.92-1,3-2.69,3a2.78,2.78,0,0,1-2.53-1.79l-1.92.8a4.79,4.79,0,0,0,4.46,3c2.59,0,4.78-1.52,4.78-5.24v-9h-2.1v0.82Zm-2.53,7a3.06,3.06,0,0,1,0-6.09,2.83,2.83,0,0,1,2.76,2.9s0,0.08,0,.12a2.81,2.81,0,0,1-2.58,3h-0.15ZM133,30.92h-5.29V45.68h2.2v-5.6H133A4.6,4.6,0,1,0,133,30.92ZM133.07,38h-3.15V32.92h3.14a2.56,2.56,0,1,1,0,5.11h0Zm13.62-2.12a4.14,4.14,0,0,0-3.94,2.26l2,0.82a2.09,2.09,0,0,1,2-1.08,2.12,2.12,0,0,1,2.32,1.9h0v0.1a4.88,4.88,0,0,0-2.3-.57c-2.11,0-4.26,1.16-4.26,3.33a3.41,3.41,0,0,0,3.57,3.24h0.08A3.11,3.11,0,0,0,149,44.48h0.08v1.14h2.13V40C151.18,37.37,149.22,35.92,146.69,35.92ZM146.42,44c-0.72,0-1.73-.36-1.73-1.25,0-1.14,1.25-1.58,2.34-1.58a3.93,3.93,0,0,1,2,.49,2.67,2.67,0,0,1-2.6,2.33h0Zm12.5-7.79-2.53,6.41h-0.08l-2.62-6.41h-2.38l3.94,9-2.24,5h2.3l6.06-13.94h-2.45V36.23Zm-19.87,9.45h2.21V30.92h-2.21V45.68Z"/><path class="cls-3" d="M25,19.13a2.37,2.37,0,0,0-.55,1.66V46.92A2.37,2.37,0,0,0,25,48.58l0.09,0.09L39.73,34V33.69L25.08,19Z"/><path class="cls-4" d="M44.61,38.92L39.73,34V33.69l4.88-4.88,0.11,0.11,5.78,3.29c1.65,0.94,1.65,2.47,0,3.41l-5.78,3.24Z"/><path class="cls-5" d="M44.72,38.86l-5-5L25,48.6a1.92,1.92,0,0,0,2.46.07l17.26-9.81"/><path class="cls-6" d="M44.72,28.92L27.45,19.06a1.92,1.92,0,0,0-2.46.07L39.73,33.86Z"/><path class="cls-7" d="M44.61,38.75L27.45,48.5a2,2,0,0,1-2.37,0h0L25,48.59h0l0.09,0.09h0a2,2,0,0,0,2.37,0l17.27-9.82Z"/><path class="cls-8" d="M25,48.42a2.37,2.37,0,0,1-.55-1.66v0.16A2.37,2.37,0,0,0,25,48.58l0.09-.09Z"/><path class="cls-8" d="M50.5,35.4l-5.89,3.35,0.11,0.11,5.78-3.29a2.07,2.07,0,0,0,1.24-1.71h0A2.2,2.2,0,0,1,50.5,35.4Z"/><path class="cls-9" d="M27.45,19.23L50.5,32.33a2.2,2.2,0,0,1,1.24,1.53h0a2.07,2.07,0,0,0-1.24-1.71L27.45,19.06c-1.65-.94-3-0.16-3,1.73v0.13C24.45,19.07,25.8,18.29,27.45,19.23Z"/></svg>