<svg id="Layer_1" data-name="Layer 1" xmlns="http://www.w3.org/2000/svg" viewBox="0 0 96.66 30.96"><defs><style>.cls-1{fill:#eb5962;}.cls-2{fill:#00a19b;}.cls-3{fill:#231f20;}</style></defs><title>nestaway_logo</title><path class="cls-1" d="M22.64,30.34H20.9V21.28a3.62,3.62,0,0,0-1.15-2.7,3.88,3.88,0,0,0-5.44,0,4.38,4.38,0,0,0-.9,1.24V30.34H11.67V16.51h1.74V17A5.52,5.52,0,0,1,17,15.71a5.38,5.38,0,0,1,5.61,5.46v9.17Zm-1.22-.52h0.69V21.17A4.86,4.86,0,0,0,17,16.23a5.1,5.1,0,0,0-3.69,1.58l-0.45.44V17H12.19V29.81h0.69V19.68l0-.05a4.86,4.86,0,0,1,1-1.45,4.4,4.4,0,0,1,6.17,0,4.17,4.17,0,0,1,1.31,3.08v8.53Z" transform="translate(-11.67 -4.52)"/><path class="cls-1" d="M31.73,30.72A7.71,7.71,0,0,1,24,23a7.71,7.71,0,0,1,7.7-7.7,7.46,7.46,0,0,1,4.78,1.64c0.23,0.19.45,0.4,0.67,0.62l0.24,0.26L37.6,18,28,27.57a5.62,5.62,0,0,0,3.71,1.32,5.7,5.7,0,0,0,4.16-1.73c0.15-.15.29-0.3,0.42-0.46l0.12-.14,1.79,0.64-0.2.28a8,8,0,0,1-.83,1A7.47,7.47,0,0,1,31.73,30.72Zm0-14.89A7.18,7.18,0,0,0,24.56,23a7.18,7.18,0,0,0,7.18,7.19,7,7,0,0,0,5.08-2.1,7.64,7.64,0,0,0,.56-0.62l-0.78-.28-0.33.35a6.2,6.2,0,0,1-4.53,1.88,6.14,6.14,0,0,1-4.27-1.64l-0.2-.19L36.87,18l-0.05-.05c-0.21-.21-0.42-0.4-0.63-0.58A6.94,6.94,0,0,0,31.73,15.83ZM26.79,27.08l-0.18-.24a6.42,6.42,0,0,1,.61-8.37,6.42,6.42,0,0,1,8.37-.6l0.24,0.18Zm4.94-10A5.88,5.88,0,0,0,25.86,23a5.66,5.66,0,0,0,1,3.28L35,18.12A5.66,5.66,0,0,0,31.73,17.13Z" transform="translate(-11.67 -4.52)"/><path class="cls-1" d="M43.19,30.66a4.06,4.06,0,0,1-3-1.24A3.81,3.81,0,0,1,39,26.7V26.5l1.73-.45v0.34a2.42,2.42,0,0,0,.73,1.81,2.48,2.48,0,0,0,3.5-3.5,11.59,11.59,0,0,0-1.7-1.23A9.93,9.93,0,0,1,41,22a3.33,3.33,0,0,1-1-2.43,3.37,3.37,0,0,1,1-2.45,3.32,3.32,0,0,1,2.44-1,3.24,3.24,0,0,1,2.38.94,3,3,0,0,1,.92,2.12v0.25L45.24,20l0-.33a2.39,2.39,0,0,0-.57-1.39,1.53,1.53,0,0,0-1.15-.44,1.65,1.65,0,0,0-1.21.5,1.71,1.71,0,0,0,0,2.43,9.36,9.36,0,0,0,1.39,1,11.53,11.53,0,0,1,2.51,1.72A4.22,4.22,0,0,1,43.19,30.66ZM39.52,26.9a3.32,3.32,0,0,0,1.07,2.15,3.68,3.68,0,0,0,5.21,0,3.7,3.7,0,0,0,0-5.22,11.13,11.13,0,0,0-2.41-1.63,9.62,9.62,0,0,1-1.5-1.07,2.24,2.24,0,0,1,1.58-3.82A2.05,2.05,0,0,1,45,17.9a2.66,2.66,0,0,1,.66,1.36L46.25,19a2.43,2.43,0,0,0-.76-1.64,2.7,2.7,0,0,0-2-.79,2.78,2.78,0,0,0-2.06.86,2.83,2.83,0,0,0-.86,2.08,2.79,2.79,0,0,0,.86,2.06A9.66,9.66,0,0,0,43.51,23h0a11.82,11.82,0,0,1,1.79,1.31,3,3,0,1,1-5.11,2.4Z" transform="translate(-11.67 -4.52)"/><path class="cls-1" d="M52.84,30.34H51.1V18.25H48.39V16.51H51.1V10.84h1.74v5.66h2.71v1.74H52.84V30.34Zm-1.22-.52h0.69V17.73H55V17H52.31V11.37H51.62V17H48.91v0.69h2.71V29.81Z" transform="translate(-11.67 -4.52)"/><path class="cls-2" d="M66.34,30.34q-0.13-.67-0.19-1.15a7.35,7.35,0,0,1-.07-1,5.16,5.16,0,0,1-1.85,1.71,5.42,5.42,0,0,1-2.73.68,4,4,0,0,1-2.9-1,3.58,3.58,0,0,1-1-2.7,3.25,3.25,0,0,1,1.49-2.77A6.57,6.57,0,0,1,63,23.07h3.13V21.49a2.73,2.73,0,0,0-.86-2.14,3.53,3.53,0,0,0-2.44-.78,3.64,3.64,0,0,0-2.34.71,2.18,2.18,0,0,0-.89,1.78H58.24l0-.07a3,3,0,0,1,1.23-2.52,5.11,5.11,0,0,1,3.39-1.09,5,5,0,0,1,3.36,1.07,3.79,3.79,0,0,1,1.27,3.07v6.26a10.87,10.87,0,0,0,.08,1.31,8.23,8.23,0,0,0,.25,1.26H66.34Zm-4.68-1a5.05,5.05,0,0,0,2.81-.77,3.85,3.85,0,0,0,1.61-2V24.15H62.94A4.68,4.68,0,0,0,60.1,25a2.39,2.39,0,0,0-1.12,2,2.26,2.26,0,0,0,.71,1.74A2.77,2.77,0,0,0,61.66,29.34Z" transform="translate(-11.67 -4.52)"/><path class="cls-2" d="M72.82,26.21l0.49,2.33h0.07L74,26.21l2.71-8.6h1.21l2.71,8.6,0.59,2.4h0.07l0.55-2.4,2.27-8.6h1.51L81.88,30.34h-1.2l-2.88-8.71-0.51-2.06H77.22l-0.51,2.06-2.82,8.71H72.68L69,17.61h1.51Z" transform="translate(-11.67 -4.52)"/><path class="cls-2" d="M95.22,30.34q-0.13-.67-0.19-1.15a7.4,7.4,0,0,1-.06-1,5.16,5.16,0,0,1-1.85,1.71,5.42,5.42,0,0,1-2.73.68,4,4,0,0,1-2.9-1,3.58,3.58,0,0,1-1-2.7,3.25,3.25,0,0,1,1.49-2.77,6.57,6.57,0,0,1,3.88-1.06H95V21.49a2.73,2.73,0,0,0-.86-2.14,3.53,3.53,0,0,0-2.44-.78,3.64,3.64,0,0,0-2.34.71,2.18,2.18,0,0,0-.89,1.78H87.12l0-.07a3,3,0,0,1,1.23-2.52,5.11,5.11,0,0,1,3.39-1.09,5,5,0,0,1,3.36,1.07,3.79,3.79,0,0,1,1.27,3.07v6.26a10.87,10.87,0,0,0,.08,1.31,8.2,8.2,0,0,0,.25,1.26H95.22Zm-4.68-1a5.05,5.05,0,0,0,2.81-.77,3.85,3.85,0,0,0,1.61-2V24.15H91.82A4.68,4.68,0,0,0,89,25a2.39,2.39,0,0,0-1.12,2,2.26,2.26,0,0,0,.71,1.74A2.77,2.77,0,0,0,90.53,29.34Z" transform="translate(-11.67 -4.52)"/><path class="cls-2" d="M102.39,26.89l0.45,1.52h0.07l3.85-10.8h1.58L102.8,32.37a7.27,7.27,0,0,1-1.28,2.2,2.89,2.89,0,0,1-2.31.91,4.14,4.14,0,0,1-.6-0.05,3,3,0,0,1-.52-0.11l0.16-1.18,0.45,0.05,0.45,0a1.83,1.83,0,0,0,1.47-.65,5.71,5.71,0,0,0,.94-1.68l0.67-1.72L97.33,17.61H98.9Z" transform="translate(-11.67 -4.52)"/><path class="cls-1" d="M13.15,19.74V30.07H11.93V16.77h1.22v0.85A5.34,5.34,0,0,1,17,16a5.12,5.12,0,0,1,5.35,5.2v8.9H21.16V21.28a3.9,3.9,0,0,0-1.23-2.89,4.14,4.14,0,0,0-5.81,0A4.58,4.58,0,0,0,13.15,19.74Z" transform="translate(-11.67 -4.52)"/><path class="cls-1" d="M27.64,27.58a5.86,5.86,0,0,0,4.09,1.57,5.93,5.93,0,0,0,4.35-1.8q0.23-.23.43-0.47l1.29,0.46a7.7,7.7,0,0,1-.8.93,7.44,7.44,0,0,1-10.53,0,7.44,7.44,0,0,1,0-10.53,7.47,7.47,0,0,1,9.88-.6q0.33,0.27.65,0.6L37.24,18l-0.92.92Zm7.78-9.5a6.15,6.15,0,0,0-8,.58,6.15,6.15,0,0,0-.58,8Z" transform="translate(-11.67 -4.52)"/><path class="cls-1" d="M43.38,23.23a9.83,9.83,0,0,1-2.15-1.44,3.07,3.07,0,0,1-.93-2.25,3.11,3.11,0,0,1,.93-2.27,3.06,3.06,0,0,1,2.25-.94,3,3,0,0,1,2.19.87,2.69,2.69,0,0,1,.84,1.94v0.07l-1.06.42a2.63,2.63,0,0,0-.64-1.54,1.79,1.79,0,0,0-1.33-.51,2,2,0,0,0-1.4,3.37,9.48,9.48,0,0,0,1.44,1A11.31,11.31,0,0,1,46,23.65a3.95,3.95,0,1,1-5.58,5.59,3.54,3.54,0,0,1-1.15-2.54l1.21-.31a2.69,2.69,0,0,0,.81,2,2.74,2.74,0,0,0,3.87-3.87A11.76,11.76,0,0,0,43.38,23.23Z" transform="translate(-11.67 -4.52)"/><path class="cls-1" d="M51.36,16.77V11.11h1.22v5.66h2.71V18H52.58V30.07H51.36V18H48.65V16.77h2.71Z" transform="translate(-11.67 -4.52)"/><rect class="cls-3" x="39.43" y="8.88" width="1.76" height="4.85"/><path class="cls-3" d="M58.54,5.46a2.25,2.25,0,0,0-.36-0.4h0L58,4.93l-0.08-.05-0.1-.06a2.29,2.29,0,0,0-.52-0.22h0l-0.18,0H57l-0.17,0H56.64a2.18,2.18,0,0,0-1.38.58l-0.06.06,0,0a2.36,2.36,0,0,0-.42.52,2,2,0,0,0-.11.22l0,0.07h0A12.17,12.17,0,0,1,53.24,8.5a4.13,4.13,0,0,1-3,1.45h0a3.74,3.74,0,0,1-1.77-.31l-0.22-.11h0L48,9.4l-0.08-.05-0.17-.11-0.25-.18,0,0-0.2-.18-0.07-.06a2.45,2.45,0,0,1-.44-0.61,4.91,4.91,0,0,0-.13,1.3,4.85,4.85,0,0,0,9.51,1.12l0-.17a7.53,7.53,0,0,0,.17-0.78c0-.18,0-0.28,0-0.28l0-.24,0-.15,0-.11c0.61-3.57,2-3.39,2.1-3.36h0l0,0" transform="translate(-11.67 -4.52)"/></svg>