<svg id="Layer_3" data-name="Layer 3" xmlns="http://www.w3.org/2000/svg" xmlns:xlink="http://www.w3.org/1999/xlink" viewBox="0 0 1600 900"><defs><style>.cls-1,.cls-15{fill:none;}.cls-2{clip-path:url(#clip-path);}.cls-3,.cls-8{fill:#36474f;}.cls-4,.cls-9{fill:#006065;}.cls-4{opacity:0.45;}.cls-5{fill:#263238;}.cls-6{fill:#445a65;}.cls-7{fill:#008390;}.cls-14,.cls-18,.cls-8{opacity:0.5;}.cls-10{fill:#ff6f00;}.cls-11{fill:#ffcb00;}.cls-12{fill:#ffa100;}.cls-13{fill:#8fa4af;}.cls-14,.cls-19{fill:#536e7b;}.cls-15{stroke:#8fa4af;stroke-miterlimit:10;stroke-width:9.13px;}.cls-16{fill:#cfd8dc;}.cls-17{fill:#b0bec5;}</style><clipPath id="clip-path"><rect class="cls-1" width="1600" height="900"/></clipPath></defs><title>00</title><g class="cls-2"><rect class="cls-3" y="-0.81" width="1612.13" height="904.51"/><path class="cls-4" d="M1606.77,325.44c0,2.21-60.38-41.48-166.74-65.49-106.36-24.91-258.71-30.13-442.64,28.2-183.93,57.79-346,86.62-462.08,90-116.08,5.23-186.18-14.95-186.18-13.58,0,2.62-236.22-43.37-390.39-96.54Q-32.38,164.13-23.5,60c0-2.23,63.7,13.27,172.4,25,108.7,12.89,262.39,22,442.37,33.89,180,12.63,341.82-12.44,458.66-29.57,116.84-18.95,188.69-29.94,188.69-31.2,0-2.94,240.84-37.76,393.14,48.27Q1619.26,215.71,1606.77,325.44Z"/><rect class="cls-5" y="814.89" width="1606" height="88.82"/><rect class="cls-1" x="986.17" y="-57.3" width="606.97" height="341.42"/><circle class="cls-6" cx="1382.98" cy="74.79" r="3.12"/><rect class="cls-6" x="1508.18" y="48.41" width="3.27" height="15.45"/><rect class="cls-6" x="1502.09" y="54.5" width="15.45" height="3.27"/><rect class="cls-6" x="1134.22" y="132.4" width="3.27" height="15.45"/><rect class="cls-6" x="1128.13" y="138.49" width="15.45" height="3.27"/><circle class="cls-6" cx="1561.58" cy="401.22" r="5.46"/><circle class="cls-6" cx="1400.98" cy="272.25" r="5.46"/><rect class="cls-6" x="1407.6" y="481.61" width="3.87" height="18.3"/><rect class="cls-6" x="1400.38" y="488.82" width="18.3" height="3.87"/><ellipse class="cls-7" cx="1497.8" cy="316.96" rx="30.58" ry="31.17"/><path class="cls-8" d="M1497.47,348.13a30.19,30.19,0,0,0,5-.42,34.86,34.86,0,0,1-13.1-7.75c-6.12-5.61-8.76-14-9.12-22-0.35-7.76,3.72-16.62,9.12-22a32.26,32.26,0,0,1,17.2-8.71,30,30,0,0,0-9.11-1.41c-16.89,0-30.58,14-30.58,31.17S1480.58,348.13,1497.47,348.13Z"/><circle class="cls-9" cx="1524.41" cy="318.63" r="1.16"/><circle class="cls-9" cx="1502.06" cy="337.13" r="2.33"/><circle class="cls-9" cx="1504.12" cy="298.49" r="1.16"/><circle class="cls-9" cx="1515.38" cy="316.2" r="2.33"/><ellipse class="cls-10" cx="1434.09" cy="147.25" rx="63.86" ry="65.1" transform="translate(-3.73 251.95) rotate(-10.03)"/><path class="cls-8" d="M1433.41,212.35a63,63,0,0,0,10.45-.88,72.79,72.79,0,0,1-27.35-16.19c-12.77-11.73-18.3-29.17-19.05-46-0.73-16.2,7.77-34.72,19.05-46a67.37,67.37,0,0,1,35.92-18.19,62.71,62.71,0,0,0-19-2.94c-35.27,0-63.86,29.15-63.86,65.1S1398.14,212.35,1433.41,212.35Z"/><path class="cls-11" d="M1505,147.17q3.32-1.74,6.48-3.47l0.21-.12q3.17-1.74,6.16-3.47l0,0,2.86-1.68,0.19-.11q2.83-1.69,5.48-3.35l0.28-.18q2.62-1.65,5-3.28l0.21-.14,2.19-1.5,0.21-.15,2.28-1.61h0l2.05-1.51,0.32-.24q2-1.52,3.84-3l0.3-.25,1.56-1.31,0.2-.17q0.84-.73,1.63-1.44l0.2-.18q0.68-.62,1.31-1.23l0.29-.28q1.41-1.37,2.6-2.69l0.26-.3q0.51-.58,1-1.14l0.13-.16c0.35-.42.67-0.84,1-1.26l0.19-.26q0.37-.51.7-1l0.18-.27c0.26-.4.5-0.79,0.72-1.18l0.07-.14c0.19-.34.36-0.68,0.52-1l0.14-.3c0.15-.34.29-0.67,0.41-1l0-.11c0.13-.36.23-0.71,0.31-1.06,0-.09,0-0.18.06-0.27q0.09-.42.14-0.82c0-.08,0-0.16,0-0.23a7.76,7.76,0,0,0,0-1c0-.06,0-0.12,0-0.19a6.81,6.81,0,0,0-.09-0.77c0-.08,0-0.17,0-0.25a6.41,6.41,0,0,0-.25-0.89h0c-3.82-10.38-34.37-9.34-75.74.89A65.53,65.53,0,0,1,1494,125.18l-0.75.27c-33.49,24.69-73.47,38.85-119.16,43.93a66.19,66.19,0,0,1-3.88-25.67c-38.31,19.09-62.38,38.18-58.55,48.59h0a6.38,6.38,0,0,0,.39.83l0.13,0.22a6.81,6.81,0,0,0,.43.63l0.12,0.16a7.78,7.78,0,0,0,.65.71l0.18,0.16q0.3,0.27.63,0.53l0.23,0.17c0.29,0.21.59,0.41,0.92,0.6l0.08,0c0.31,0.18.63,0.34,1,.5l0.3,0.14q0.48,0.22,1,.42l0.19,0.08c0.41,0.15.85,0.3,1.3,0.43l0.32,0.09,1.15,0.3,0.35,0.09c0.5,0.11,1,.22,1.54.32l0.19,0,1.47,0.23,0.43,0.06,1.64,0.19h0.14c0.62,0.06,1.25.11,1.9,0.15l0.44,0,1.67,0.08,0.39,0,2.12,0h2.73q2.29,0,4.77-.19l0.49,0,2.24-.16,0.32,0,2.67-.24,0.33,0,2.43-.26,0.5-.06q2.8-.32,5.75-0.74l0.52-.07,2.84-.43,0.15,0,3.17-.52,0.36-.06,2.88-.51,0.45-.08q3.24-.59,6.63-1.29l0.51-.11q3.4-.7,6.93-1.5l0.43-.1,3.25-.75,0.39-.09,3.71-.9h0a542.69,542.69,0,0,0,56.44-17.51,543.32,543.32,0,0,0,54-23.11h0q3.53-1.76,6.89-3.51Z"/><path class="cls-12" d="M1405.25,170.05l-5.88-4.54q-12.31,2.42-25.22,3.87a66.19,66.19,0,0,1-3.88-25.67c-38.31,19.09-62.38,38.18-58.55,48.59h0a6.38,6.38,0,0,0,.39.83l0.13,0.22a6.81,6.81,0,0,0,.43.63l0.12,0.16a7.78,7.78,0,0,0,.65.71l0.18,0.16q0.3,0.27.63,0.53l0.23,0.17c0.29,0.21.59,0.41,0.92,0.6l0.08,0c0.31,0.18.63,0.34,1,.5l0.3,0.14q0.48,0.22,1,.42l0.19,0.08c0.41,0.15.85,0.3,1.3,0.43l0.32,0.09,1.15,0.3,0.35,0.09c0.5,0.11,1,.22,1.54.32l0.19,0,1.47,0.23,0.43,0.06,1.64,0.19h0.14c0.62,0.06,1.25.11,1.9,0.15l0.44,0,1.67,0.08,0.39,0,2.12,0h2.73q2.29,0,4.77-.19l0.49,0,2.24-.16,0.32,0,2.67-.24,0.33,0,2.43-.26,0.5-.06q2.8-.32,5.75-0.74l0.52-.07,2.84-.43,0.15,0,3.17-.52,0.36-.06,2.88-.51,0.45-.08q3.24-.59,6.63-1.29l0.51-.11q3.4-.7,6.93-1.5l0.43-.1,3.25-.75,0.39-.09,3.71-.9h0c12.33-3,25.63-6.93,39.46-11.56A116.62,116.62,0,0,1,1405.25,170.05Z"/><rect class="cls-13" x="760.87" y="474.56" width="205.29" height="57.7" transform="matrix(0.92, -0.38, 0.38, 0.92, -126.9, 368.67)"/><rect class="cls-13" x="854.09" y="425.64" width="205.29" height="78.34" transform="translate(-105.04 401.39) rotate(-22.49)"/><rect class="cls-13" x="751.72" y="506.35" width="20.21" height="78.34" transform="translate(-150.75 332.97) rotate(-22.49)"/><rect class="cls-13" x="1285.6" y="254.32" width="20.21" height="140.6" transform="translate(-25.62 520.42) rotate(-22.49)"/><rect class="cls-13" x="969.31" y="367.6" width="205.29" height="98.98" transform="translate(-78.02 441.85) rotate(-22.49)"/><rect class="cls-13" x="1088.67" y="307.03" width="209.27" height="119.63" transform="translate(-49.56 484.45) rotate(-22.49)"/><rect class="cls-14" x="852.47" y="477.11" width="9.8" height="57.7" transform="translate(-128.34 366.51) rotate(-22.49)"/><rect class="cls-14" x="770.79" y="510.93" width="9.8" height="57.7" transform="translate(-147.5 337.84) rotate(-22.49)"/><rect class="cls-14" x="967.69" y="419.07" width="9.8" height="78.34" transform="translate(-101.32 406.96) rotate(-22.49)"/><rect class="cls-14" x="1087.21" y="359.26" width="9.8" height="98.98" transform="translate(-73.3 448.92) rotate(-22.49)"/><rect class="cls-14" x="1276.88" y="270.4" width="9.8" height="119.63" transform="translate(-28.82 515.51) rotate(-22.49)"/><path class="cls-1" d="M454.56,504.4l350.84,0.7-0.7,350.84-350.84-.7Z"/><line class="cls-15" x1="969.39" y1="490.79" x2="875.01" y2="850.8"/><polyline class="cls-15" points="972.59 850.8 970.59 490.79 1064.97 850.8"/><circle class="cls-5" cx="458.55" cy="568.23" r="14.68"/><circle class="cls-5" cx="394.44" cy="520.38" r="35.59"/><path class="cls-5" d="M727.32,213.34a115,115,0,0,0-58.73,16.15,149.24,149.24,0,0,0-267.4-106.28A126.58,126.58,0,0,0,254,261.9,98,98,0,1,0,204.1,444.18h9c14.9,29,44.47,47.35,78.54,47.35s63.64-18.35,78.54-47.35H727.32A115.42,115.42,0,1,0,727.32,213.34Z"/><path class="cls-16" d="M395,336.4a13.14,13.14,0,0,0,8.56,16.42l12.49,4-13.76,43.61a19.65,19.65,0,0,0,37.46,11.88l13.76-43.61,25,7.92-13.76,43.61a19.65,19.65,0,0,0,37.46,11.88L516,388.46l12.49,4a13.1,13.1,0,0,0,16.42-8.5L584.2,259.33,434.35,211.81Z"/><polygon class="cls-17" points="545.01 383.7 395.22 336.52 419.42 259.29 569.21 306.46 545.01 383.7"/><path class="cls-16" d="M576.13,177.36l21.34-11a6.57,6.57,0,0,0-6.08-11.66l-24.3,12.58a76.74,76.74,0,0,0-30.49-18.3,77.7,77.7,0,0,0-35.69-2.68L488.13,121.9a6.56,6.56,0,1,0-11.66,6l11.21,21.51a78,78,0,0,0-49.58,50.48l149.85,47.52A78,78,0,0,0,576.13,177.36Z"/><path class="cls-3" d="M456.74,206.29a58.91,58.91,0,0,1,112.39,35.39"/><polygon class="cls-16" points="585.22 228.06 451.5 185.95 446.31 202.53 580.02 244.64 585.22 228.06"/><g class="cls-18"><polygon class="cls-19" points="451.51 378.83 413.35 366.81 416.53 356.66 454.69 368.68 451.51 378.83"/></g><g class="cls-18"><polygon class="cls-19" points="512.56 398.06 474.4 386.04 477.58 375.89 515.74 387.9 512.56 398.06"/></g><path class="cls-19" d="M478.3,303.49a12.76,12.76,0,1,1-8.36-16A12.72,12.72,0,0,1,478.3,303.49Z"/><path class="cls-17" d="M473.27,301.9a7.48,7.48,0,1,1-4.9-9.37A7.46,7.46,0,0,1,473.27,301.9Z"/><polygon class="cls-17" points="537.65 284.4 457.89 259.29 465.66 234.49 545.42 259.61 537.65 284.4"/><path class="cls-7" d="M463.34,306l-53.4-16.82,4.1-13.09,53.4,16.82a6.88,6.88,0,0,1,4.51,8.61h0A6.85,6.85,0,0,1,463.34,306Z"/><path class="cls-19" d="M468.38,335.17a12.76,12.76,0,1,1-8.36-16A12.72,12.72,0,0,1,468.38,335.17Z"/><path class="cls-17" d="M463.34,333.58a7.48,7.48,0,1,1-4.9-9.37A7.46,7.46,0,0,1,463.34,333.58Z"/><path class="cls-10" d="M453.42,337.64L400,320.83l4.1-13.09,53.4,16.82a6.88,6.88,0,0,1,4.51,8.61h0A6.85,6.85,0,0,1,453.42,337.64Z"/><path class="cls-19" d="M486.28,340.8a12.76,12.76,0,1,1,8.36,16A12.72,12.72,0,0,1,486.28,340.8Z"/><path class="cls-17" d="M491.31,342.39a7.48,7.48,0,1,1,4.9,9.37A7.46,7.46,0,0,1,491.31,342.39Z"/><path class="cls-7" d="M501.24,338.33l53.4,16.82-4.1,13.09-53.4-16.82a6.88,6.88,0,0,1-4.51-8.61h0A6.85,6.85,0,0,1,501.24,338.33Z"/><path class="cls-19" d="M496.21,309.12a12.76,12.76,0,1,1,8.36,16A12.72,12.72,0,0,1,496.21,309.12Z"/><path class="cls-17" d="M501.24,310.71a7.48,7.48,0,1,1,4.9,9.37A7.46,7.46,0,0,1,501.24,310.71Z"/><path class="cls-10" d="M511.17,306.65l53.4,16.82-4.1,13.09-53.4-16.82a6.88,6.88,0,0,1-4.51-8.61h0A6.85,6.85,0,0,1,511.17,306.65Z"/><path class="cls-17" d="M454.33,236.91a24.61,24.61,0,1,1-16.13-30.81A24.53,24.53,0,0,1,454.33,236.91Z"/><path class="cls-17" d="M600,282.8A24.61,24.61,0,1,1,583.9,252,24.53,24.53,0,0,1,600,282.8Z"/><path class="cls-16" d="M329.45,282.08h0a19.58,19.58,0,0,1,8.3-26.48l81.45-42.37a19.71,19.71,0,0,1,26.54,8.36h0a19.58,19.58,0,0,1-8.3,26.48L356,290.44A19.71,19.71,0,0,1,329.45,282.08Z"/><polygon class="cls-17" points="375.54 280.41 357.17 245.33 400.27 222.91 418.64 257.99 375.54 280.41"/><g class="cls-18"><polygon class="cls-19" points="401.53 267.36 382.91 231.8 391.56 227.3 410.18 262.86 401.53 267.36"/></g><g class="cls-18"><polygon class="cls-19" points="384.24 276.36 365.61 240.8 374.26 236.3 392.88 271.86 384.24 276.36"/></g><path class="cls-16" d="M629.27,376.5h0a19.58,19.58,0,0,0,8.3-26.48l-42.65-81.45a19.71,19.71,0,0,0-26.54-8.36h0a19.58,19.58,0,0,0-8.3,26.48l42.65,81.45A19.71,19.71,0,0,0,629.27,376.5Z"/><polygon class="cls-17" points="592.41 348.71 627.49 330.46 604.92 287.36 569.84 305.61 592.41 348.71"/><g class="cls-18"><polygon class="cls-19" points="578.53 323.1 614.09 304.6 609.56 295.95 574 314.45 578.53 323.1"/></g><g class="cls-18"><polygon class="cls-19" points="587.59 340.4 623.15 321.9 618.62 313.25 583.06 331.75 587.59 340.4"/></g><polygon class="cls-17" points="440.72 408.83 403.71 397.17 409.32 379.27 446.33 390.92 440.72 408.83"/><polygon class="cls-17" points="502.71 428.35 465.7 416.7 471.31 398.79 508.32 410.44 502.71 428.35"/><rect class="cls-6" x="579.22" y="142.8" width="3.57" height="16.87"/><rect class="cls-6" x="572.57" y="149.45" width="16.87" height="3.57"/><rect class="cls-6" x="212.27" y="298.53" width="3.57" height="16.87"/><rect class="cls-6" x="205.62" y="305.18" width="16.87" height="3.57"/><circle class="cls-6" cx="300.52" cy="220.84" r="5.96"/><circle class="cls-6" cx="691.19" cy="352.55" r="5.96"/><polygon class="cls-5" points="1434.55 591.25 1487.36 682.73 1381.73 682.73 1434.55 591.25"/><polygon class="cls-5" points="1434.55 629.29 1501.72 745.64 1367.37 745.64 1434.55 629.29"/><polygon class="cls-5" points="1434.55 671.15 1523.38 825.02 1345.71 825.02 1434.55 671.15"/><polygon class="cls-5" points="1256.15 529.64 1321.45 642.74 1190.85 642.74 1256.15 529.64"/><polygon class="cls-5" points="1256.15 576.66 1339.2 720.52 1173.09 720.52 1256.15 576.66"/><polygon class="cls-5" points="1256.15 628.42 1365.98 818.66 1146.31 818.66 1256.15 628.42"/><polygon class="cls-5" points="121.16 611.57 171.14 698.14 71.17 698.14 121.16 611.57"/><polygon class="cls-5" points="121.16 647.56 184.73 757.68 57.58 757.68 121.16 647.56"/><polygon class="cls-5" points="121.16 687.19 205.23 832.8 37.09 832.8 121.16 687.19"/><polygon class="cls-5" points="287.11 553.26 348.91 660.3 225.31 660.3 287.11 553.26"/><polygon class="cls-5" points="287.11 597.76 365.72 733.9 208.51 733.9 287.11 597.76"/><polygon class="cls-5" points="287.11 646.75 391.06 826.79 183.17 826.79 287.11 646.75"/><path class="cls-7" d="M541.75,767.7a14.66,14.66,0,0,0,14.59,14.65l14.62,0-0.1,51.16a21.93,21.93,0,1,0,43.85.09l0.1-51.16L644,782.52l-0.1,51.16a21.93,21.93,0,0,0,43.85.09l0.1-51.16,14.62,0a14.66,14.66,0,0,0,14.65-14.59l0.29-146.18L542,621.52Z"/><path class="cls-7" d="M754,621.94a21.9,21.9,0,0,0-22,21.88l-0.2,102.33a21.93,21.93,0,0,0,43.85.09l0.2-102.33A21.9,21.9,0,0,0,754,621.94Z"/><path class="cls-7" d="M505.5,621.45a21.9,21.9,0,0,0-22,21.88l-0.2,102.33a21.93,21.93,0,1,0,43.85.09l0.2-102.33A21.9,21.9,0,0,0,505.5,621.45Z"/><path class="cls-7" d="M542.07,606.9l175.42,0.35a87.2,87.2,0,0,0-36-70.82l19-19a7.34,7.34,0,0,0-10.36-10.4l-21.68,21.59A85.36,85.36,0,0,0,630,519.37a86.6,86.6,0,0,0-38.9,9.13l-21.74-21.68a7.34,7.34,0,1,0-10.4,10.36L578,536.37A87.47,87.47,0,0,0,542.07,606.9Zm124.08-43.77a7.32,7.32,0,1,1-7.32,7.32A7.32,7.32,0,0,1,666.15,563.13Zm-73.09,0a7.32,7.32,0,1,1-7.32,7.32A7.32,7.32,0,0,1,593.06,563.13Z"/></g></svg>