<?xml version="1.0" encoding="utf-8"?>
<!-- Generator: Adobe Illustrator 19.2.0, SVG Export Plug-In . SVG Version: 6.00 Build 0)  -->
<svg version="1.1" id="Layer_1" xmlns="http://www.w3.org/2000/svg" xmlns:xlink="http://www.w3.org/1999/xlink" x="0px" y="0px"
	 viewBox="0 0 300 300" style="enable-background:new 0 0 300 300;" xml:space="preserve">
<style type="text/css">
	.st0{fill:#FFFFFF;}
	.st1{fill:#00B8D6;}
	.st2{fill:#00E4FF;}
	.st3{fill:#7EFFFF;}
</style>
<g>
	<circle class="st0" cx="150" cy="150" r="149"/>
	<polygon class="st1" points="150,280.3 116.6,252.9 73.4,255.3 62.5,213.5 26.1,190.3 41.8,150 26.1,109.7 62.5,86.4 73.5,44.7 
		116.6,47.1 150,19.7 183.4,47.1 226.6,44.7 237.5,86.5 273.9,109.7 258.2,150 273.9,190.3 237.5,213.6 226.5,255.3 183.4,252.9 	
		"/>
	<path class="st2" d="M157,115.3h-8.7c-0.7,0-1.3-0.4-1.5-1.1l-2.7-8.2c-0.5-1.5-2.5-1.5-3,0l-2.7,8.2c-0.2,0.7-0.8,1.1-1.5,1.1
		h-8.7c-1.5,0-2.2,2-0.9,2.9l7,5.1c0.6,0.4,0.8,1.1,0.6,1.8l-2.7,8.2c-0.5,1.5,1.2,2.7,2.4,1.8l7-5.1c0.6-0.4,1.3-0.4,1.9,0l7,5.1
		c1.2,0.9,2.9-0.3,2.4-1.8l-2.7-8.2c-0.2-0.7,0-1.4,0.6-1.8l7-5.1C159.1,117.3,158.5,115.3,157,115.3z"/>
	<path class="st0" d="M212.5,89.7h-12.1c-1,0-1.8-0.6-2.1-1.5l-3.7-11.5c-0.7-2-3.5-2-4.2,0l-3.7,11.5c-0.3,0.9-1.1,1.5-2.1,1.5
		h-12.1c-2.1,0-3,2.7-1.3,4l9.8,7.1c0.8,0.6,1.1,1.6,0.8,2.5l-3.7,11.5c-0.7,2,1.7,3.7,3.4,2.5l9.8-7.1c0.8-0.6,1.8-0.6,2.6,0
		l9.8,7.1c1.7,1.3,4.1-0.4,3.4-2.5l-3.7-11.5c-0.3-0.9,0-1.9,0.8-2.5l9.8-7.1C215.5,92.4,214.7,89.7,212.5,89.7z"/>
	<path class="st3" d="M107.9,139.6h-7.7c-0.6,0-1.1-0.4-1.3-1l-2.4-7.3c-0.4-1.3-2.3-1.3-2.7,0l-2.4,7.3c-0.2,0.6-0.7,1-1.3,1h-7.7
		c-1.4,0-1.9,1.7-0.8,2.5l6.2,4.5c0.5,0.4,0.7,1,0.5,1.6l-2.4,7.3c-0.4,1.3,1.1,2.4,2.2,1.6l6.2-4.5c0.5-0.4,1.2-0.4,1.7,0l6.2,4.5
		c1.1,0.8,2.6-0.3,2.2-1.6l-2.4-7.3c-0.2-0.6,0-1.2,0.5-1.6l6.2-4.5C109.8,141.4,109.2,139.6,107.9,139.6z"/>
	<polygon class="st1" points="157.4,156.3 157.4,176.8 115.9,176.8 115.9,197.3 74.4,197.3 198.9,197.3 198.9,176.8 198.9,156.3 	
		"/>
	<path class="st3" d="M170.9,131v23.8h-48.3v23.8H74.4v23.8h48.3h96.5h0l0-71.5H170.9z"/>
</g>
</svg>
