<svg xmlns="http://www.w3.org/2000/svg" width="60" height="48" viewBox="0 0 60 48">
  <g fill="none" fill-rule="evenodd" stroke="#FFF" stroke-width="2" stroke-linecap="round" stroke-linejoin="round">
    <path d="M5 34.4486v-3.2143"/>
    <path d="M5 44.8227V23.7013C5 17.791 9.7474 13 15.605 13c5.8563 0 10.6047 4.791 10.6047 10.7013v11.596C26.2095 41.208 30.9567 46 36.8142 46c4.83 0 8.9058-3.2604 10.186-7.7176" stroke-dasharray="5.219 5.219"/>
    <path d="M48.0078 35.5773V32.363m6.7162-19.6713h-.0363c.7516-2.5684.153-5.4506-1.8645-7.477-2.94-2.953-7.7065-2.953-10.6464 0-2.0176 2.0264-2.616 4.9086-1.8645 7.477h-.0364l.1992.5507c.029.0756.0502.1538.0816.228L47.331 26l7.064-12.4387c.063-.1424.1118-.2874.1645-.4336l.1644-.436z"/>
    <path d="M45 10.5714C45 9.152 46.1424 8 47.55 8c1.4076 0 2.55 1.152 2.55 2.5714 0 1.4195-1.1424 2.5715-2.55 2.5715-1.4076 0-2.55-1.152-2.55-2.5718z"/>
  </g>
</svg>
